<svg version="1.0" xmlns="http://www.w3.org/2000/svg" width="800.000000" height="800.000000" viewBox="0 0 800.000000 800.000000" preserveAspectRatio="xMidYMid meet">
  <metadata>
    <rdf:RDF xmlns:rdf="http://www.w3.org/1999/02/22-rdf-syntax-ns#" xmlns:rdfs="http://www.w3.org/2000/01/rdf-schema#" xmlns:dc="http://purl.org/dc/elements/1.1/">
      <rdf:Description dc:format="image/svg+xml" dc:Label="1" dc:ContentProducer="001191330110MACRLGPT8B00000" dc:ProduceID="393089257" dc:ReservedCode1="vgSDfXL89lEoyRRHgXcEvZ600NQBSFdqMMasbRxc9bM=" dc:ContentPropagator="001191330110MACRLGPT8B00000" dc:PropagateID="393089257" dc:ReservedCode2="vgSDfXL89lEoyRRHgXcEvZ600NQBSFdqMMasbRxc9bM="/>
    </rdf:RDF>
  </metadata>
  <g transform="translate(0.000000,800.000000) scale(0.100000,-0.100000)" fill="#000000" stroke="none">
    <path d="M3110 6279 c-273 -44 -469 -121 -720 -282 -170 -109 -267 -184 -384 -297 -126 -122 -207 -230 -268 -356 -76 -158 -92 -230 -92 -414 0 -129 4 -169 22 -242 31 -116 66 -200 113 -272 27 -41 36 -63 29 -70 -5 -5 -10 -53 -10 -106 l0 -96 -42 -21 c-168 -81 -312 -272 -369 -488 -27 -98 -32 -309 -10 -395 31 -125 130 -289 187 -311 23 -8 25 -13 17 -42 -4 -17 -8 -75 -8 -128 0 -91 3 -100 38 -172 39 -79 99 -142 167 -177 39 -20 155 -55 211 -65 l36 -5 22 -138 c11 -75 28 -195 36 -267 27 -228 42 -298 67 -318 16 -13 22 -28 20 -48 -3 -22 2 -31 21 -40 21 -9 30 -8 57 12 32 24 33 24 408 31 443 8 509 14 1052 102 330 54 491 69 687 63 92 -3 185 -9 205 -12 33 -6 41 -3 68 23 33 34 39 74 16 107 -32 46 -64 382 -73 753 l-6 282 70 -6 c125 -12 242 37 343 142 104 109 168 280 142 380 -12 44 -11 47 20 90 l32 44 25 -24 c14 -13 45 -33 68 -45 173 -86 427 38 539 264 68 137 55 265 -34 354 -48 48 -118 81 -172 81 -15 0 -29 3 -33 6 -13 13 268 351 511 614 74 80 141 159 150 177 14 29 14 34 -2 58 -10 15 -16 28 -14 30 2 1 26 10 53 19 148 48 295 175 363 316 36 73 37 78 37 190 0 106 -2 119 -27 167 -16 29 -42 68 -58 87 -18 20 -26 37 -20 41 16 10 12 71 -7 94 -34 40 -197 52 -358 26 -321 -52 -553 -223 -604 -446 -13 -56 -13 -152 0 -208 9 -43 9 -46 -24 -80 -154 -161 -366 -529 -579 -1001 -154 -341 -212 -521 -206 -645 6 -122 60 -197 154 -212 l36 -6 -6 -51 c-21 -161 -161 -296 -305 -296 -31 0 -66 3 -78 6 l-23 6 0 247 c0 395 -23 677 -80 961 -49 244 -105 390 -196 510 -46 60 -85 80 -133 67 -10 -2 -43 0 -73 5 l-55 9 -6 140 c-18 396 -113 693 -333 1041 -91 143 -131 181 -185 176 -31 -3 -40 1 -50 19 -22 42 -66 53 -201 52 -67 -1 -148 -5 -178 -10z m237 -211 c63 -9 76 -8 98 6 l25 16 46 -71 c151 -236 276 -527 334 -776 27 -113 27 -115 -7 -98 -131 68 -494 27 -810 -91 -245 -91 -422 -212 -532 -363 l-49 -68 -107 -37 c-59 -20 -157 -60 -219 -87 -61 -28 -117 -53 -123 -56 -8 -3 -13 3 -13 14 0 11 -10 28 -21 39 -31 28 -67 115 -95 229 -29 120 -32 260 -8 368 20 91 97 251 165 342 213 284 662 579 964 634 117 21 204 21 352 -1z m2910 -287 c-73 -75 -83 -105 -47 -141 36 -36 75 -26 141 37 32 31 61 54 64 52 2 -3 -16 -36 -40 -74 -50 -79 -55 -108 -23 -142 44 -46 93 -21 155 79 l38 61 9 -38 c28 -121 -90 -295 -250 -366 -68 -31 -124 -28 -206 9 -86 41 -200 72 -260 72 -46 0 -47 1 -57 38 -15 53 -14 81 9 155 51 164 226 272 529 326 2 1 -26 -30 -62 -68z m-462 -602 c22 -6 81 -29 130 -51 50 -23 120 -51 157 -63 l67 -21 -212 -220 c-565 -585 -668 -721 -827 -1087 -48 -110 -73 -147 -101 -147 -56 0 -24 161 85 424 136 327 445 946 486 971 4 2 56 -25 115 -60 64 -39 119 -65 136 -65 38 0 61 25 57 64 -3 34 -33 57 -168 129 l-71 38 42 49 c46 55 46 55 104 39z m-1642 -485 c49 -12 126 -196 187 -449 65 -266 89 -567 90 -1095 0 -346 16 -802 35 -1045 8 -99 15 -183 15 -186 0 -3 -44 -4 -97 -1 -115 5 -376 -18 -599 -54 -592 -93 -721 -108 -1144 -129 -162 -8 -309 -17 -325 -20 l-30 -7 -39 199 c-21 109 -52 252 -68 318 -16 66 -25 121 -21 123 57 20 124 66 159 109 65 79 87 147 92 283 6 187 -35 316 -135 422 -77 80 -132 103 -253 102 -126 -1 -206 -32 -289 -113 -32 -31 -64 -65 -70 -76 -11 -19 -12 -19 -37 10 -44 51 -94 168 -110 257 -43 233 58 494 234 607 27 17 53 31 58 31 5 0 18 -135 28 -307 11 -189 23 -320 31 -340 26 -62 80 -70 132 -18 27 27 34 41 29 58 -6 23 -42 618 -48 792 l-3 99 40 23 c111 63 344 147 632 227 315 88 616 149 898 180 132 15 549 15 608 0z m1507 -700 c47 -19 63 -42 62 -94 -2 -140 -214 -327 -328 -290 -29 10 -104 79 -104 96 0 14 83 149 136 221 40 53 60 73 81 76 63 9 115 6 153 -9z m-3585 -905 c26 -7 57 -28 87 -59 60 -63 90 -149 90 -265 1 -124 -28 -199 -95 -249 -38 -28 -117 -26 -217 3 -98 29 -148 64 -179 126 -22 43 -26 62 -26 140 1 78 4 98 29 147 64 130 186 191 311 157z"/>
    <path d="M3650 4335 c-214 -27 -380 -53 -865 -135 -192 -33 -405 -65 -473 -72 -100 -10 -125 -16 -133 -30 -6 -12 -6 -25 1 -38 10 -18 21 -20 138 -20 148 0 332 19 522 54 441 82 770 128 1029 146 183 12 221 33 175 98 -14 20 -23 22 -112 21 -53 -1 -180 -11 -282 -24z"/>
    <path d="M2677 3952 c-23 -25 -22 -36 13 -226 63 -341 92 -413 160 -391 27 9 35 47 22 109 -6 28 -14 74 -17 101 -10 80 -73 383 -85 405 -14 26 -70 27 -93 2z"/>
    <path d="M3223 3926 c-41 -19 -70 -66 -84 -139 l-12 -57 -34 40 c-47 54 -97 69 -149 44 -64 -32 -79 -70 -78 -199 1 -77 6 -121 17 -147 19 -45 55 -58 92 -34 25 17 25 17 19 125 -5 75 -3 110 4 115 7 4 30 -32 60 -98 49 -102 70 -126 111 -126 43 0 57 30 75 166 9 71 21 133 26 138 5 5 24 -40 44 -104 36 -113 53 -139 92 -140 29 0 74 37 74 61 0 40 -52 206 -83 263 -49 91 -107 121 -174 92z"/>
    <path d="M2199 3881 l-23 -19 31 -94 c18 -54 29 -105 26 -120 -8 -41 122 -368 164 -414 26 -29 67 -25 96 8 22 26 22 40 -4 89 -11 23 -18 47 -16 54 3 7 35 29 72 49 73 41 94 70 75 105 -24 46 -72 46 -159 2 -48 -25 -58 -21 -63 23 -3 28 3 33 106 91 60 34 116 71 124 83 32 49 -23 111 -84 93 -16 -5 -72 -32 -126 -60 l-96 -52 -21 55 c-11 30 -23 67 -27 81 -5 21 -30 45 -47 45 -3 0 -15 -8 -28 -19z"/>
    <path d="M3992 3269 c-55 -28 -89 -77 -126 -183 -6 -18 -10 -16 -44 17 -42 41 -88 55 -122 37 -18 -10 -31 -10 -61 0 -33 11 -42 11 -63 -4 -14 -9 -28 -27 -32 -41 l-6 -25 -25 20 c-30 24 -80 26 -110 5 -19 -14 -21 -13 -26 14 -12 59 -109 62 -124 3 -3 -14 5 -60 20 -110 15 -47 25 -88 23 -89 -2 -2 -15 16 -30 40 -28 49 -46 60 -82 51 -48 -12 -55 -54 -24 -151 36 -117 58 -143 120 -143 24 0 35 7 48 30 10 18 25 30 38 30 37 0 51 22 58 88 6 61 19 102 34 102 4 0 25 -33 46 -73 21 -39 46 -80 54 -89 21 -25 77 -23 103 3 18 18 19 29 15 92 l-5 72 15 -47 c19 -59 81 -118 124 -118 23 0 35 7 49 31 11 18 22 26 25 20 4 -6 24 -11 45 -11 27 0 44 7 61 25 22 24 23 27 11 77 -15 61 -4 120 28 160 18 21 21 22 36 7 9 -8 24 -58 35 -109 12 -62 24 -98 36 -107 45 -33 114 2 114 57 0 16 -7 61 -15 100 -41 196 -130 277 -243 219z"/>
    <path d="M2965 3185 c-60 -19 -140 -41 -178 -51 -82 -20 -117 -45 -117 -84 0 -34 34 -70 64 -70 12 0 51 9 89 19 l67 20 0 -34 c0 -51 29 -265 42 -308 20 -67 76 -87 117 -43 l23 25 -25 153 c-15 84 -27 173 -29 197 l-3 44 69 18 c75 19 91 30 101 71 5 21 1 33 -19 52 -33 34 -64 33 -201 -9z"/>
    <path d="M4040 2523 c-142 -13 -670 -78 -880 -108 -360 -50 -388 -53 -591 -70 -103 -8 -193 -17 -202 -21 -24 -9 -29 -35 -11 -62 l16 -25 162 6 c208 9 404 29 926 96 85 11 265 31 400 45 308 32 389 44 418 62 25 16 29 46 8 64 -16 12 -169 21 -246 13z"/>
    <path d="M4085 2184 c-44 -7 -179 -17 -300 -23 -280 -15 -385 -24 -733 -67 -155 -19 -365 -41 -467 -49 -215 -18 -235 -23 -235 -63 0 -15 5 -33 12 -40 23 -23 409 -11 758 23 80 8 267 21 415 30 610 35 716 47 748 86 24 29 22 74 -5 99 -25 23 -68 24 -193 4z"/>
    <path d="M1862 2800 c-34 -21 -62 -72 -62 -112 0 -37 38 -88 77 -104 50 -21 99 -10 140 31 27 27 33 41 33 74 0 107 -99 165 -188 111z"/>
  </g>
</svg>
