<svg version="1.0" xmlns="http://www.w3.org/2000/svg" width="800.000000" height="800.000000" viewBox="0 0 800.000000 800.000000" preserveAspectRatio="xMidYMid meet">
  <metadata>
    <rdf:RDF xmlns:rdf="http://www.w3.org/1999/02/22-rdf-syntax-ns#" xmlns:rdfs="http://www.w3.org/2000/01/rdf-schema#" xmlns:dc="http://purl.org/dc/elements/1.1/">
      <rdf:Description dc:format="image/svg+xml" dc:Label="1" dc:ContentProducer="001191330110MACRLGPT8B00000" dc:ProduceID="393085570" dc:ReservedCode1="wwKYtUjl/C3oCOjt8Qzhy7ZNbSlqyxmYo2KbdSAN5S4=" dc:ContentPropagator="001191330110MACRLGPT8B00000" dc:PropagateID="393085570" dc:ReservedCode2="wwKYtUjl/C3oCOjt8Qzhy7ZNbSlqyxmYo2KbdSAN5S4="/>
    </rdf:RDF>
  </metadata>
  <g transform="translate(0.000000,800.000000) scale(0.100000,-0.100000)" fill="#000000" stroke="none">
    <path d="M3100 6479 c-284 -30 -937 -205 -1100 -296 -146 -82 -264 -246 -291 -407 l-12 -74 -36 15 c-56 24 -157 13 -235 -26 -126 -62 -196 -175 -196 -314 0 -167 111 -271 267 -253 l56 6 -7 -42 c-29 -176 -36 -247 -36 -348 0 -330 108 -594 331 -811 l78 -76 -41 -49 c-197 -237 -304 -627 -354 -1291 -21 -280 -16 -651 9 -699 26 -49 89 -61 123 -23 18 20 19 36 16 248 -8 551 65 1100 188 1416 44 112 130 257 170 287 l26 19 104 -55 c127 -66 267 -118 414 -156 190 -49 246 -55 481 -54 231 0 324 13 466 63 l57 19 30 -66 c50 -109 73 -206 79 -333 l6 -116 -44 -11 c-91 -24 -136 -32 -199 -32 -84 0 -222 23 -330 55 -104 30 -120 31 -154 4 -19 -15 -26 -30 -26 -55 0 -52 32 -77 129 -103 178 -48 223 -55 381 -55 140 0 163 3 243 27 173 53 341 152 530 310 26 21 51 36 56 33 6 -4 25 -35 43 -69 84 -158 283 -287 445 -287 30 0 53 -5 53 -10 0 -19 -88 -144 -151 -215 -254 -286 -593 -463 -992 -520 -134 -19 -380 -19 -490 0 -179 31 -360 120 -474 233 -53 52 -69 62 -97 62 -38 0 -76 -36 -76 -73 0 -52 107 -162 227 -233 164 -97 324 -147 538 -166 l130 -12 -12 -129 c-16 -160 -7 -187 63 -187 61 0 79 47 100 261 l6 66 67 7 c172 17 448 99 612 181 173 88 292 169 412 284 l68 65 157 1 c175 2 360 29 497 72 256 81 404 233 405 416 0 30 4 37 20 37 53 0 319 -32 401 -49 50 -10 102 -16 115 -13 53 10 77 84 38 122 -18 18 -171 61 -266 75 -73 11 -84 23 -72 80 l9 48 77 -2 c78 -2 118 9 118 33 0 8 17 16 42 20 58 9 107 63 162 179 99 204 114 333 47 384 -9 7 -38 20 -66 29 -27 9 -54 20 -59 24 -15 14 13 76 45 99 26 20 30 28 27 64 -6 78 -57 94 -376 118 -134 10 -165 15 -169 28 -3 9 -17 41 -32 71 -21 44 -26 73 -29 152 l-4 98 45 0 c24 0 58 -7 73 -15 39 -20 664 -22 704 -2 37 19 84 87 106 153 14 45 19 87 19 174 0 111 -1 118 -34 184 -26 53 -40 71 -67 82 -47 20 -626 20 -702 1 -57 -15 -109 -10 -182 19 -58 22 -244 30 -337 14 -154 -26 -364 -113 -508 -210 -97 -65 -200 -177 -239 -259 -28 -60 -31 -75 -31 -161 0 -86 3 -101 33 -164 17 -37 32 -69 32 -71 0 -1 -23 -5 -52 -7 -64 -7 -76 -20 -112 -128 -49 -148 -55 -282 -19 -420 19 -76 31 -83 128 -75 49 4 91 3 108 -4 31 -12 72 1 82 28 3 9 9 43 12 77 5 54 3 64 -16 83 -11 11 -32 21 -44 21 -27 0 -57 -28 -57 -54 0 -14 -8 -17 -47 -14 l-48 3 0 105 c0 73 6 126 19 174 l20 69 160 -6 c89 -3 285 -19 436 -36 284 -31 569 -55 795 -66 72 -4 133 -9 137 -11 4 -3 -14 -31 -40 -63 -63 -79 -116 -169 -154 -266 -29 -73 -32 -90 -32 -192 0 -97 -3 -112 -16 -109 -20 6 -270 40 -570 77 -135 16 -301 39 -370 50 -69 10 -186 29 -260 40 -74 12 -142 27 -150 34 -21 18 -87 35 -138 35 -42 0 -48 -4 -165 -118 -227 -221 -458 -412 -498 -412 -3 0 -9 40 -13 89 -8 113 -36 221 -86 335 -22 49 -38 91 -37 93 2 1 30 20 63 41 186 122 333 327 427 598 120 345 122 668 7 1014 -21 63 -37 116 -35 118 1 1 31 7 65 13 80 13 115 31 127 66 6 17 7 79 1 163 -18 280 -18 281 -43 306 -29 29 -98 48 -151 40 l-42 -5 -12 47 c-19 77 -69 160 -132 216 -73 67 -201 139 -300 171 -129 41 -386 55 -598 34z m1104 -656 c3 -21 9 -81 13 -133 l6 -95 -79 -17 c-157 -34 -488 -68 -1004 -103 -201 -14 -419 -30 -485 -35 -234 -20 -551 -50 -642 -61 -95 -11 -162 -5 -168 15 -1 6 -7 38 -12 71 -6 33 -13 67 -17 77 -6 13 2 18 43 27 102 22 1181 165 1696 226 165 19 354 41 420 49 66 8 143 14 171 15 l51 1 7 -37z m-147 -533 c142 -426 93 -885 -131 -1223 -97 -145 -257 -275 -417 -337 -314 -121 -751 -100 -1132 56 -460 188 -686 475 -703 894 -3 69 -1 131 4 138 7 10 16 9 45 -3 45 -19 136 -21 194 -6 92 25 187 118 213 209 13 47 13 127 0 171 -5 19 -8 36 -7 38 6 5 588 54 947 78 369 25 553 42 760 69 58 8 125 13 150 13 l45 -2 32 -95z m1724 -256 c5 -3 9 -79 9 -170 l0 -164 -68 0 c-102 0 -105 5 -100 178 4 171 7 177 91 168 32 -3 63 -8 68 -12z m-313 -173 c0 -92 3 -178 7 -190 5 -17 -14 -42 -107 -139 -62 -65 -129 -144 -148 -175 -30 -48 -39 -56 -60 -52 -14 2 -75 7 -136 10 l-111 7 -43 83 c-41 79 -42 85 -39 157 4 67 8 81 41 130 70 106 278 238 485 308 48 16 93 30 100 30 9 0 12 -45 11 -169z m1032 150 c3 -3 1 -75 -3 -158 l-9 -153 -90 0 -90 0 31 29 c17 16 31 34 31 39 0 37 -24 63 -87 96 -52 28 -201 131 -229 159 -3 2 96 2 218 -1 123 -2 225 -7 228 -11z m153 -93 c6 -58 -3 -131 -17 -145 -3 -4 -6 42 -6 100 0 117 14 143 23 45z m-543 -110 c42 -29 95 -62 118 -73 23 -11 42 -22 42 -25 0 -7 -313 0 -320 7 -8 8 -13 171 -5 200 l6 26 42 -41 c23 -22 76 -64 117 -94z m-394 -346 c1 -73 6 -121 18 -151 9 -24 16 -45 16 -47 0 -14 -414 16 -428 31 -4 3 -2 9 4 13 81 55 211 178 249 235 16 24 23 27 79 27 l61 0 1 -108z m626 -643 c29 -6 56 -14 61 -18 8 -8 -40 -156 -73 -221 -55 -110 -93 -133 -144 -85 -31 29 -34 66 -10 146 21 71 83 189 100 189 7 0 37 -5 66 -11z m-1749 -336 c85 -65 178 -198 242 -343 25 -57 45 -107 45 -111 0 -14 -70 -10 -135 6 -126 33 -238 121 -293 231 -52 104 -53 98 24 175 38 38 71 69 74 69 4 0 23 -12 43 -27z m422 -59 c159 -23 643 -92 777 -109 68 -9 124 -18 126 -20 2 -2 1 -27 -3 -56 l-7 -51 -297 8 c-357 11 -523 11 -573 2 l-38 -7 -42 82 c-23 45 -57 101 -75 124 -18 24 -33 46 -33 49 0 2 15 2 33 -1 17 -3 77 -12 132 -21z m325 -374 c107 -6 225 -13 263 -16 l67 -7 0 -31 c-1 -84 -91 -185 -217 -243 -87 -40 -229 -77 -353 -93 -83 -10 -210 -14 -210 -6 0 2 31 56 68 119 81 136 108 210 92 252 -13 35 -5 41 52 38 24 -1 131 -7 238 -13z"/>
    <path d="M3771 5156 c-24 -26 -29 -74 -16 -159 10 -67 25 -94 57 -108 25 -10 35 -10 56 2 44 25 47 38 32 149 -14 113 -29 140 -78 140 -17 0 -38 -10 -51 -24z"/>
    <path d="M3228 5050 c-22 -17 -26 -29 -32 -112 -6 -97 -21 -164 -39 -186 -6 -8 -30 -23 -54 -34 -48 -22 -60 -48 -44 -90 16 -43 52 -61 98 -49 124 34 177 130 190 347 l6 100 -28 22 c-34 27 -65 28 -97 2z"/>
    <path d="M2534 5042 c-36 -5 -55 -36 -64 -103 -15 -100 -12 -137 10 -159 27 -27 75 -26 104 3 29 29 53 180 35 221 -13 27 -50 44 -85 38z"/>
    <path d="M3330 4389 c-41 -4 -201 -20 -355 -34 -160 -15 -294 -32 -312 -40 -39 -17 -50 -50 -33 -102 41 -126 129 -226 251 -285 125 -61 222 -72 330 -38 123 38 217 137 260 275 12 39 30 84 40 101 26 43 24 80 -6 109 -26 27 -43 29 -175 14z m-5 -181 c-12 -41 -54 -105 -85 -131 -95 -80 -278 -52 -392 61 -27 25 -48 49 -48 52 0 3 35 7 78 8 42 2 145 9 227 16 232 20 228 20 220 -6z"/>
    <path d="M4836 4061 c-70 -10 -94 -50 -60 -99 14 -20 24 -22 98 -22 91 0 116 13 116 62 0 50 -58 73 -154 59z"/>
    <path d="M5087 4022 c-9 -10 -30 -91 -52 -201 -33 -170 -35 -185 -20 -207 31 -48 108 -36 119 19 11 49 66 350 66 358 0 5 -9 18 -20 29 -25 25 -72 26 -93 2z"/>
    <path d="M5353 4028 c-12 -6 -28 -25 -36 -42 -16 -34 -59 -227 -59 -264 -1 -58 86 -86 117 -38 9 14 20 53 25 88 5 35 18 93 30 129 26 83 25 93 -6 118 -30 23 -39 24 -71 9z"/>
    <path d="M5775 4004 c-36 -20 -45 -32 -45 -61 0 -42 21 -49 161 -56 115 -6 135 -4 151 10 25 22 23 75 -3 99 -30 27 -219 32 -264 8z"/>
    <path d="M5561 3983 c-26 -21 -45 -90 -67 -236 -14 -99 -14 -110 0 -132 12 -19 25 -25 51 -25 51 0 71 33 80 127 3 43 13 106 21 141 19 83 18 98 -6 122 -25 25 -51 25 -79 3z"/>
    <path d="M5847 3822 c-22 -25 -21 -75 1 -95 28 -25 116 -23 142 3 50 50 -2 110 -95 110 -18 0 -39 -8 -48 -18z"/>
    <path d="M5693 3785 c-23 -16 -35 -76 -22 -113 20 -54 105 -49 129 7 26 64 -54 143 -107 106z"/>
  </g>
</svg>
